<svg width="2794" height="2216" xmlns="http://www.w3.org/2000/svg" xmlns:xlink="http://www.w3.org/1999/xlink" xml:space="preserve" overflow="hidden"><g transform="translate(-495 -178)"><rect x="2150.5" y="1996.5" width="216" height="100" stroke="#FFFFFF" stroke-width="3.4375" stroke-linejoin="round" stroke-miterlimit="10" fill="none"/><text fill="#FFFFFF" font-family="Calibri,Calibri_MSFontService,sans-serif" font-weight="700" font-size="55" transform="matrix(1 0 0 1 2182.71 2063)">Sim</text><rect x="1338.5" y="1000.5" width="528" height="99.9997" stroke="#FFFFFF" stroke-width="3.4375" stroke-linejoin="round" stroke-miterlimit="10" fill="none"/><text fill="#FFFFFF" font-family="Calibri,Calibri_MSFontService,sans-serif" font-weight="700" font-size="55" transform="matrix(1 0 0 1 1371.33 1068)">Busca de ação única</text><path d="M1855 236.6 2383 183 2383 451 1855 451Z" stroke="#FFFFFF" stroke-width="10.3125" stroke-linejoin="round" stroke-miterlimit="10" fill="#0B2859" fill-rule="evenodd"/><text fill="#FFFFFF" font-family="Calibri,Calibri_MSFontService,sans-serif" font-weight="700" font-size="55" transform="matrix(1 0 0 1 1972.95 329)">Demanda do </text><text fill="#FFFFFF" font-family="Calibri,Calibri_MSFontService,sans-serif" font-weight="700" font-size="55" transform="matrix(1 0 0 1 2033.68 395)">usuário</text><path d="M1855 726.5 2119 593 2383 726.5 2119 860Z" stroke="#FFFFFF" stroke-width="10.3125" stroke-miterlimit="8" fill="#0B2859" fill-rule="evenodd"/><text fill="#FFFFFF" font-family="Calibri,Calibri_MSFontService,sans-serif" font-weight="700" font-size="55" transform="matrix(1 0 0 1 2002.88 712)">Escopo do </text><text fill="#FFFFFF" font-family="Calibri,Calibri_MSFontService,sans-serif" font-weight="700" font-size="55" transform="matrix(1 0 0 1 2031.07 778)">chatbot</text><path d="M2673 726.5 2761 593 3113 593C3161.6 593 3201 652.77 3201 726.5 3201 800.23 3161.6 860 3113 860L2761 860Z" stroke="#FFFFFF" stroke-width="10.3125" stroke-miterlimit="8" fill="#0B2859" fill-rule="evenodd"/><text fill="#FFFFFF" font-family="Calibri,Calibri_MSFontService,sans-serif" font-weight="700" font-size="55" transform="matrix(1 0 0 1 2776.02 712)">Mensagem de </text><text fill="#FFFFFF" font-family="Calibri,Calibri_MSFontService,sans-serif" font-weight="700" font-size="55" transform="matrix(1 0 0 1 2831.71 778)">limitação</text><path d="M2124.16 451 2124.16 582.481 2113.84 582.481 2113.84 451ZM2141.5 554.141 2119 592.714 2096.5 554.141C2095.06 551.681 2095.9 548.524 2098.35 547.089 2100.81 545.654 2103.97 546.485 2105.41 548.945L2123.45 579.883 2114.55 579.883 2132.59 548.945C2134.03 546.485 2137.19 545.654 2139.65 547.089 2142.1 548.524 2142.94 551.681 2141.5 554.141Z" fill="#FFFFFF"/><path d="M2383 721.844 2662.46 721.844 2662.46 732.157 2383 732.156ZM2634.12 704.5 2672.69 727 2634.12 749.501C2631.66 750.936 2628.5 750.105 2627.07 747.645 2625.63 745.186 2626.46 742.028 2628.92 740.593L2659.86 722.547 2659.86 731.454 2628.92 713.407C2626.46 711.972 2625.63 708.815 2627.07 706.355 2628.5 703.896 2631.66 703.065 2634.12 704.5Z" fill="#FFFFFF"/><rect x="1690.5" y="1899.5" width="216" height="100" stroke="#FFFFFF" stroke-width="3.4375" stroke-linejoin="round" stroke-miterlimit="10" fill="none"/><text fill="#FFFFFF" font-family="Calibri,Calibri_MSFontService,sans-serif" font-weight="700" font-size="55" transform="matrix(1 0 0 1 1722.81 1967)">Não</text><rect x="2167.5" y="859.5" width="216" height="100" stroke="#FFFFFF" stroke-width="3.4375" stroke-linejoin="round" stroke-miterlimit="10" fill="none"/><text fill="#FFFFFF" font-family="Calibri,Calibri_MSFontService,sans-serif" font-weight="700" font-size="55" transform="matrix(1 0 0 1 2200 927)">Sim</text><path d="M2124.16 860 2124.16 964.767 2113.84 964.767 2113.84 860ZM2141.5 936.428 2119 975.001 2096.5 936.428C2095.06 933.968 2095.9 930.811 2098.35 929.376 2100.81 927.941 2103.97 928.772 2105.41 931.232L2123.45 962.169 2114.55 962.169 2132.59 931.232C2134.03 928.772 2137.19 927.941 2139.65 929.376 2142.1 930.811 2142.94 933.968 2141.5 936.428Z" fill="#FFFFFF"/><path d="M1855 1109 2119 975 2383 1109 2119 1243Z" stroke="#FFFFFF" stroke-width="10.3125" stroke-miterlimit="8" fill="#0B2859" fill-rule="evenodd"/><text fill="#FFFFFF" font-family="Calibri,Calibri_MSFontService,sans-serif" font-weight="700" font-size="55" transform="matrix(1 0 0 1 2033.97 1094)">Tipo de </text><text fill="#FFFFFF" font-family="Calibri,Calibri_MSFontService,sans-serif" font-weight="700" font-size="55" transform="matrix(1 0 0 1 2011.62 1160)">demanda</text><rect x="997" y="1364" width="528" height="268" stroke="#FFFFFF" stroke-width="10.3125" stroke-miterlimit="8" fill="#0B2859"/><text fill="#FFFFFF" font-family="Calibri,Calibri_MSFontService,sans-serif" font-weight="700" font-size="55" transform="matrix(1 0 0 1 1055.09 1483)">Busca de ações na </text><text fill="#FFFFFF" font-family="Calibri,Calibri_MSFontService,sans-serif" font-weight="700" font-size="55" transform="matrix(1 0 0 1 1199.74 1549)">Bolsa</text><rect x="1855" y="1364" width="528" height="268" stroke="#FFFFFF" stroke-width="10.3125" stroke-miterlimit="8" fill="#0B2859"/><text fill="#FFFFFF" font-family="Calibri,Calibri_MSFontService,sans-serif" font-weight="700" font-size="55" transform="matrix(1 0 0 1 1894.42 1483)">Acessa a carteira de </text><text fill="#FFFFFF" font-family="Calibri,Calibri_MSFontService,sans-serif" font-weight="700" font-size="55" transform="matrix(1 0 0 1 1958.95 1549)">investimentos</text><path d="M2124.16 1243 2124.16 1353.79 2113.84 1353.79 2113.84 1243ZM2141.5 1325.45 2119 1364.02 2096.5 1325.45C2095.06 1322.99 2095.9 1319.83 2098.35 1318.4 2100.81 1316.96 2103.97 1317.8 2105.41 1320.26L2123.45 1351.19 2114.55 1351.19 2132.59 1320.26C2134.03 1317.8 2137.19 1316.96 2139.65 1318.4 2142.1 1319.83 2142.94 1322.99 2141.5 1325.45Z" fill="#FFFFFF"/><rect x="1855" y="2121" width="528" height="268" stroke="#FFFFFF" stroke-width="10.3125" stroke-miterlimit="8" fill="#0B2859"/><text fill="#FFFFFF" font-family="Calibri,Calibri_MSFontService,sans-serif" font-weight="700" font-size="55" transform="matrix(1 0 0 1 1969.79 2240)">Algoritmo de </text><text fill="#FFFFFF" font-family="Calibri,Calibri_MSFontService,sans-serif" font-weight="700" font-size="55" transform="matrix(1 0 0 1 1945.29 2306)">Recomendação</text><path d="M2124.16 1632 2124.16 1733.62 2113.84 1733.62 2113.84 1632ZM2141.5 1705.28 2119 1743.86 2096.5 1705.28C2095.06 1702.82 2095.9 1699.67 2098.35 1698.23 2100.81 1696.8 2103.97 1697.63 2105.41 1700.09L2123.45 1731.03 2114.55 1731.03 2132.59 1700.09C2134.03 1697.63 2137.19 1696.8 2139.65 1698.23 2142.1 1699.67 2142.94 1702.82 2141.5 1705.28Z" fill="#FFFFFF"/><path d="M1855 2260.32 843.35 2260.32 843.35 1492.84 986.791 1492.84 986.791 1503.16 848.506 1503.16 853.662 1498 853.662 2255.17 848.506 2250.01 1855 2250.01ZM958.451 1475.5 997.024 1498 958.451 1520.5C955.991 1521.94 952.834 1521.1 951.399 1518.65 949.964 1516.19 950.795 1513.03 953.255 1511.59L984.192 1493.55 984.192 1502.45 953.255 1484.41C950.795 1482.97 949.964 1479.81 951.399 1477.36 952.834 1474.9 955.991 1474.06 958.451 1475.5Z" fill="#FFFFFF"/><path d="M997 1870 1085 1736 1437 1736C1485.6 1736 1525 1795.99 1525 1870 1525 1944.01 1485.6 2004 1437 2004L1085 2004Z" stroke="#FFFFFF" stroke-width="10.3125" stroke-miterlimit="8" fill="#0B2859" fill-rule="evenodd"/><text fill="#FFFFFF" font-family="Calibri,Calibri_MSFontService,sans-serif" font-weight="700" font-size="55" transform="matrix(1 0 0 1 1136.53 1888)">Resultados</text><path d="M1266.16 1632 1266.16 1726.29 1255.84 1726.29 1255.84 1632ZM1283.5 1697.95 1261 1736.52 1238.5 1697.95C1237.06 1695.49 1237.9 1692.33 1240.36 1690.9 1242.81 1689.46 1245.97 1690.3 1247.41 1692.76L1265.45 1723.69 1256.55 1723.69 1274.59 1692.76C1276.03 1690.3 1279.19 1689.46 1281.65 1690.9 1284.1 1692.33 1284.94 1695.49 1283.5 1697.95Z" fill="#FFFFFF"/><path d="M1855 1877.5 2119 1744 2383 1877.5 2119 2011Z" stroke="#FFFFFF" stroke-width="10.3125" stroke-miterlimit="8" fill="#0B2859" fill-rule="evenodd"/><text fill="#FFFFFF" font-family="Calibri,Calibri_MSFontService,sans-serif" font-weight="700" font-size="55" transform="matrix(1 0 0 1 2016.79 1862)">Sugestão </text><text fill="#FFFFFF" font-family="Calibri,Calibri_MSFontService,sans-serif" font-weight="700" font-size="55" transform="matrix(1 0 0 1 2020.07 1928)">de ações</text><path d="M2124.16 2011 2124.16 2110.79 2113.84 2110.79 2113.84 2011ZM2141.5 2082.45 2119 2121.02 2096.5 2082.45C2095.06 2079.99 2095.9 2076.83 2098.35 2075.4 2100.81 2073.96 2103.97 2074.8 2105.41 2077.25L2123.45 2108.19 2114.55 2108.19 2132.59 2077.25C2134.03 2074.8 2137.19 2073.96 2139.65 2075.4 2142.1 2076.83 2142.94 2079.99 2141.5 2082.45Z" fill="#FFFFFF"/><path d="M1855 1882.66 1684.84 1882.66 1684.84 1498 1690 1503.16 1535.21 1503.16 1535.21 1492.84 1695.16 1492.84 1695.16 1877.5 1690 1872.34 1855 1872.34ZM1563.55 1520.5 1524.98 1498 1563.55 1475.5C1566.01 1474.06 1569.17 1474.9 1570.6 1477.36 1572.04 1479.81 1571.2 1482.97 1568.74 1484.41L1537.81 1502.45 1537.81 1493.55 1568.74 1511.59C1571.2 1513.03 1572.04 1516.19 1570.6 1518.65 1569.17 1521.1 1566.01 1521.94 1563.55 1520.5Z" fill="#FFFFFF"/><path d="M0-5.15625 513.918-5.15625 513.918 244.625 503.606 244.625 503.606 0 508.762 5.15625 0 5.15625ZM530.937 216.029 508.879 254.857 485.938 216.545C484.475 214.101 485.27 210.935 487.713 209.472 490.156 208.009 493.323 208.804 494.786 211.247L513.186 241.976 504.279 242.078 521.97 210.936C523.377 208.46 526.524 207.593 529 208.999 531.476 210.406 532.343 213.553 530.937 216.029Z" fill="#FFFFFF" transform="matrix(-1 1.22465e-16 1.22465e-16 1 1854.88 1109)"/><path d="M872.5 973C853.999 973 839 1032.99 839 1107 839 1181.01 853.999 1241 872.5 1241L533.5 1241C514.999 1241 500 1181.01 500 1107 500 1032.99 514.999 973 533.5 973Z" fill="#0B2859" fill-rule="evenodd"/><path d="M872.5 973C891.002 973 906 1032.99 906 1107 906 1181.01 891.002 1241 872.5 1241 853.999 1241 839 1181.01 839 1107 839 1032.99 853.999 973 872.5 973Z" fill="#6D7E9B" fill-rule="evenodd"/><path d="M872.5 1241C853.999 1241 839 1181.01 839 1107 839 1032.99 853.999 973 872.5 973 891.002 973 906 1032.99 906 1107 906 1181.01 891.002 1241 872.5 1241L533.5 1241C514.999 1241 500 1181.01 500 1107 500 1032.99 514.999 973 533.5 973L872.5 973" stroke="#FFFFFF" stroke-width="10.3125" stroke-miterlimit="8" fill="none" fill-rule="evenodd"/><text fill="#FFFFFF" font-family="Calibri,Calibri_MSFontService,sans-serif" font-weight="700" font-size="55" transform="matrix(1 0 0 1 574.504 1092)">API Alpha </text><text fill="#FFFFFF" font-family="Calibri,Calibri_MSFontService,sans-serif" font-weight="700" font-size="55" transform="matrix(1 0 0 1 594.006 1158)">Vantage</text><path d="M3045.5 1363C3027 1363 3012 1422.99 3012 1497 3012 1571.01 3027 1631 3045.5 1631L2706.5 1631C2688 1631 2673 1571.01 2673 1497 2673 1422.99 2688 1363 2706.5 1363Z" fill="#0B2859" fill-rule="evenodd"/><path d="M3045.5 1363C3064 1363 3079 1422.99 3079 1497 3079 1571.01 3064 1631 3045.5 1631 3027 1631 3012 1571.01 3012 1497 3012 1422.99 3027 1363 3045.5 1363Z" fill="#6D7E9B" fill-rule="evenodd"/><path d="M3045.5 1631C3027 1631 3012 1571.01 3012 1497 3012 1422.99 3027 1363 3045.5 1363 3064 1363 3079 1422.99 3079 1497 3079 1571.01 3064 1631 3045.5 1631L2706.5 1631C2688 1631 2673 1571.01 2673 1497 2673 1422.99 2688 1363 2706.5 1363L3045.5 1363" stroke="#FFFFFF" stroke-width="10.3125" stroke-miterlimit="8" fill="none" fill-rule="evenodd"/><text fill="#FFFFFF" font-family="Calibri,Calibri_MSFontService,sans-serif" font-weight="700" font-size="55" transform="matrix(1 0 0 1 2769.31 1482)">Carteira </text><text fill="#FFFFFF" font-family="Calibri,Calibri_MSFontService,sans-serif" font-weight="700" font-size="55" transform="matrix(1 0 0 1 2814.14 1548)">BTG</text><path d="M906 1101.84 1156.67 1101.84 1156.67 1353.35 1146.36 1353.35 1146.36 1107 1151.51 1112.16 906 1112.16ZM1174.01 1325.01 1151.51 1363.58 1129.01 1325.01C1127.58 1322.55 1128.41 1319.39 1130.87 1317.96 1133.33 1316.52 1136.49 1317.35 1137.92 1319.81L1155.97 1350.75 1147.06 1350.75 1165.11 1319.81C1166.54 1317.35 1169.7 1316.52 1172.16 1317.96 1174.62 1319.39 1175.45 1322.55 1174.01 1325.01Z" fill="#FFFFFF"/><path d="M0.0108824-5.15624 279.468-4.56643 279.446 5.74604-0.0108824 5.15624ZM251.165-21.9707 289.691 0.611401 251.07 23.0307C248.608 24.4604 245.452 23.6228 244.022 21.16 242.593 18.6972 243.43 15.5417 245.893 14.112L276.869-3.86953 276.85 5.03817 245.951-13.074C243.494-14.514 242.67-17.673 244.11-20.1298 245.55-22.5866 248.709-23.4108 251.165-21.9707Z" fill="#FFFFFF" transform="matrix(-1 0 0 1 2672.67 1497)"/><path d="M3200.67 721.2 3283.17 721.2 3278.01 726.357 3278.01 317 3283.17 322.156 2393.21 322.156 2393.21 311.844 3288.33 311.844 3288.33 731.513 3200.67 731.513ZM2421.55 339.501 2382.98 317 2421.55 294.499C2424.01 293.064 2427.17 293.895 2428.6 296.355 2430.04 298.815 2429.2 301.972 2426.74 303.407L2395.81 321.454 2395.81 312.546 2426.74 330.593C2429.2 332.028 2430.04 335.185 2428.6 337.645 2427.17 340.105 2424.01 340.936 2421.55 339.501Z" fill="#FFFFFF"/><rect x="2420.5" y="610.5" width="216" height="100" stroke="#FFFFFF" stroke-width="3.4375" stroke-linejoin="round" stroke-miterlimit="10" fill="none"/><text fill="#FFFFFF" font-family="Calibri,Calibri_MSFontService,sans-serif" font-weight="700" font-size="55" transform="matrix(1 0 0 1 2453 677)">Não</text><rect x="2523.5" y="200.5" width="678" height="100" stroke="#FFFFFF" stroke-width="3.4375" stroke-linejoin="round" stroke-miterlimit="10" fill="none"/><text fill="#FFFFFF" font-family="Calibri,Calibri_MSFontService,sans-serif" font-weight="700" font-size="55" transform="matrix(1 0 0 1 2555.67 268)">Nova entrada do usuário</text></g></svg>